# File created by Blade
# Date/Time:  Wed Apr 08 17:35:20 2015
#---------------------------------------------------------
:version 1.10
:name HOM
:units
  mass 1.0
  length 1.000000
  angle deg
:documentation
     Acclaim Skeleton File
:root
   axis xyz
   order TX TY TZ RX RY RZ
   position 0.000000 0.000000 0.000000
   orientation 0 0 0
:bonedata
   begin
      id 1
      name Spine_dum
      direction 0.000000 1.000000 0.000000
      length 5.893853
      axis 0.0 0.0 0.0 xyz
   end
   begin
      id 2
      name LeftUpLeg_dum
      direction 1.000000 0.000000 0.000000
      length 3.697939
      axis 0.0 0.0 0.0 xyz
   end
   begin
      id 3
      name RightUpLeg_dum
      direction -1.000000 0.000000 0.000000
      length 3.697939
      axis 0.0 0.0 0.0 xyz
   end
   begin
      id 4
      name Spine
      direction 0.000000 1.000000 0.000000
      length 0.000000
      axis 0.0 0.0 0.0 xyz
      dof rx ry rz
   end
   begin
      id 5
      name Spine_dum1
      direction 0.000000 1.000000 0.000000
      length 16.447146
      axis 0.0 0.0 0.0 xyz
   end
   begin
      id 6
      name Spine_dum2
      direction 0.000000 1.000000 0.000000
      length 10.900383
      axis 0.0 0.0 0.0 xyz
   end
   begin
      id 7
      name Spine_dum3
      direction 0.000000 1.000000 0.000000
      length 10.900383
      axis 0.0 0.0 0.0 xyz
   end
   begin
      id 8
      name Head
      direction 0.000000 1.000000 0.000000
      length 4.527550
      axis 0.0 0.0 0.0 xyz
      dof rx ry rz
   end
   begin
      id 9
      name LeftShoulder
      direction 1.000000 0.000000 0.000000
      length 8.219464
      axis 0.0 0.0 -90.0 xyz
      dof rx ry rz
   end
   begin
      id 10
      name LeftArm
      direction 1.000000 0.000000 0.000000
      length 11.094937
      axis 0.0 0.0 -90.0 xyz
      dof rx ry rz
   end
   begin
      id 11
      name LeftForeArm
      direction 1.000000 0.000000 0.000000
      length 9.103875
      axis 0.0 0.0 -90.0 xyz
      dof ry rz rx
   end
   begin
      id 12
      name LeftHand
      direction 0.000000 0.000000 0.000000
      length 0.000000
      axis 0.0 0.0 -90.0 xyz
      dof rx ry rz
   end
   begin
      id 13
      name LeftHand_dum1
      direction 0.000000 0.000000 0.000000
      length 0.000000
      axis 0.0 0.0 -90.0 xyz
   end
   begin
      id 14
      name LeftHand_dum2
      direction 1.000000 0.000000 0.000000
      length 3.937000
      axis 0.0 0.0 -90.0 xyz
   end
   begin
      id 15
      name LeftHandThumb1
      direction 0.000000 0.000000 1.000000
      length 3.937000
      axis 0.0 0.0 -90.0 xyz
      dof rx rz ry
   end
   begin
      id 16
      name RightShoulder
      direction -1.000000 0.000000 0.000000
      length 8.219464
      axis 0.0 0.0 90.0 xyz
      dof rx ry rz
   end
   begin
      id 17
      name RightArm
      direction -1.000000 0.000000 0.000000
      length 11.094937
      axis 0.0 0.0 90.0 xyz
      dof rx ry rz
   end
   begin
      id 18
      name RightForeArm
      direction -1.000000 0.000000 0.000000
      length 9.103875
      axis 0.0 0.0 90.0 xyz
      dof ry rz rx
   end
   begin
      id 19
      name RightHand
      direction 0.000000 0.000000 0.000000
      length 0.000000
      axis 0.0 0.0 90.0 xyz
      dof rx ry rz
   end
   begin
      id 20
      name RightHand_dum1
      direction 0.000000 0.000000 0.000000
      length 0.000000
      axis 0.0 0.0 90.0 xyz
   end
   begin
      id 21
      name RightHand_dum2
      direction -1.000000 0.000000 0.000000
      length 3.937000
      axis 0.0 0.0 90.0 xyz
   end
   begin
      id 22
      name RightHandThumb1
      direction 0.000000 0.000000 1.000000
      length 3.937000
      axis 0.0 0.0 90.0 xyz
      dof rx rz ry
   end
   begin
      id 23
      name LeftUpLeg
      direction 0.000000 -1.000000 0.000000
      length 16.181467
      axis 0.0 0.0 0.0 xyz
      dof rx ry rz
   end
   begin
      id 24
      name LeftLeg
      direction 0.000000 -1.000000 0.000000
      length 16.501392
      axis 0.0 0.0 0.0 xyz
      dof rx ry rz
   end
   begin
      id 25
      name LeftFoot
      direction 0.000000 -0.258819 0.965926
      length 6.408245
      axis 15.0 0.0 0.0 xyz
      dof rx ry rz
   end
   begin
      id 26
      name LeftToeBase
      direction 0.000000 0.000000 1.000000
      length 2.952750
      axis 0.0 0.0 0.0 xyz
      dof rx ry rz
   end
   begin
      id 27
      name RightUpLeg
      direction 0.000000 -1.000000 0.000000
      length 16.181467
      axis 0.0 0.0 0.0 xyz
      dof rx ry rz
   end
   begin
      id 28
      name RightLeg
      direction 0.000000 -1.000000 0.000000
      length 16.501392
      axis 0.0 0.0 0.0 xyz
      dof rx ry rz
   end
   begin
      id 29
      name RightFoot
      direction 0.000000 -0.258819 0.965926
      length 6.408245
      axis 15.0 0.0 0.0 xyz
      dof rx ry rz
   end
   begin
      id 30
      name RightToeBase
      direction 0.000000 0.000000 1.000000
      length 2.952750
      axis 0.0 0.0 0.0 xyz
      dof rx ry rz
   end
:hierarchy
   begin
      root Spine_dum LeftUpLeg_dum RightUpLeg_dum
      Spine_dum Spine
      LeftUpLeg_dum LeftUpLeg
      RightUpLeg_dum RightUpLeg
      Spine Spine_dum1 Spine_dum2 Spine_dum3
      Spine_dum1 Head
      Spine_dum2 LeftShoulder
      Spine_dum3 RightShoulder
      LeftShoulder LeftArm
      LeftArm LeftForeArm
      LeftForeArm LeftHand
      LeftHand LeftHand_dum1 LeftHand_dum2
      LeftHand_dum1 LeftHandThumb1
      RightShoulder RightArm
      RightArm RightForeArm
      RightForeArm RightHand
      RightHand RightHand_dum1 RightHand_dum2
      RightHand_dum1 RightHandThumb1
      LeftUpLeg LeftLeg
      LeftLeg LeftFoot
      LeftFoot LeftToeBase
      RightUpLeg RightLeg
      RightLeg RightFoot
      RightFoot RightToeBase
   end

# File created by Blade
# Date/Time:  Wed Apr 08 17:35:25 2015
# Frame Rate: 120.000 fps
#------------------------------------------------------
:FULLY-SPECIFIED
:DEGREES
346
root 7.093518 36.690282 3.066424 36.938223 -49.504870 -14.851312
Spine -29.481114 -9.155383 14.826198
Head 15.098587 10.941310 3.118298
LeftShoulder -10.629960 24.233169 11.202534
LeftArm 18.729007 23.024821 -78.775620
LeftForeArm 19.629225 -0.000000 28.394617
LeftHand -12.506011 -0.000000 -12.018046
LeftHandThumb1 -26.253704 0.000000 33.147579
RightShoulder -41.449353 -53.441753 16.874005
RightArm 50.037997 -18.903739 54.366686
RightForeArm 6.872491 0.000000 26.243165
RightHand -1.757823 0.000000 13.537700
RightHandThumb1 -24.326973 -0.000000 -32.862282
LeftUpLeg -34.626668 -0.884683 6.076207
LeftLeg 24.001571 -0.000000 -0.000000
LeftFoot -12.295392 -6.753720 -2.897723
LeftToeBase 8.895661 -0.000000 -0.000000
RightUpLeg -116.210122 6.405224 21.433312
RightLeg 122.336818 -0.000000 -0.000000
RightFoot -13.381279 13.183173 20.615837
RightToeBase -9.534737 -0.000000 0.000000
347
root 7.094066 36.692886 3.070625 37.067931 -49.570236 -14.926344
Spine -29.556543 -9.114599 14.849073
Head 15.120466 10.911512 3.122659
LeftShoulder -10.611041 24.220523 11.233429
LeftArm 18.722383 23.068704 -78.783522
LeftForeArm 19.545203 0.000000 28.490811
LeftHand -12.505881 -0.000000 -12.067173
LeftHandThumb1 -26.253704 0.000000 33.147579
RightShoulder -41.427245 -53.449803 16.849041
RightArm 50.029083 -18.955991 54.376418
RightForeArm 6.832117 -0.000000 26.238664
RightHand -1.715481 -0.000000 13.673263
RightHandThumb1 -24.326973 -0.000000 -32.862282
LeftUpLeg -34.675522 -0.834438 6.080233
LeftLeg 23.999400 -0.000000 -0.000000
LeftFoot -12.283339 -6.676738 -2.801518
LeftToeBase 8.741549 -0.000000 -0.000000
RightUpLeg -116.305955 6.397087 21.440674
RightLeg 122.271289 -0.000000 -0.000000
RightFoot -13.367604 13.227311 20.681197
RightToeBase -9.651412 -0.000000 0.000000
348
root 7.094551 36.697343 3.072590 37.240507 -49.620360 -14.999233
Spine -29.688236 -9.074835 14.881999
Head 15.150087 10.855447 3.129263
LeftShoulder -10.607301 24.224299 11.261697
LeftArm 18.719694 23.083819 -78.790070
LeftForeArm 19.548269 -0.000000 28.601596
LeftHand -12.492679 -0.000000 -12.042489
LeftHandThumb1 -26.253704 0.000000 33.147579
RightShoulder -41.505853 -53.474685 16.915067
RightArm 50.063358 -19.022973 54.327103
RightForeArm 6.744834 -0.000000 26.270266
RightHand -1.728930 0.000000 13.573224
RightHandThumb1 -24.326973 -0.000000 -32.862282
LeftUpLeg -34.776086 -0.785592 6.094847
LeftLeg 23.996368 -0.000000 -0.000000
LeftFoot -12.244692 -6.621928 -2.729272
LeftToeBase 8.613521 -0.000000 -0.000000
RightUpLeg -116.441478 6.405135 21.454746
RightLeg 122.196009 -0.000000 -0.000000
RightFoot -13.376158 13.235910 20.764269
RightToeBase -9.778248 -0.000000 0.000000
349
root 7.092838 36.700877 3.077010 37.364741 -49.680734 -15.076711
Spine -29.765274 -9.048122 14.907444
Head 15.175384 10.818409 3.133871
LeftShoulder -10.603596 24.247204 11.272357
LeftArm 18.731415 23.081209 -78.775644
LeftForeArm 19.633857 0.000000 28.722471
LeftHand -12.515653 -0.000000 -12.021142
LeftHandThumb1 -26.253704 0.000000 33.147579
RightShoulder -41.535125 -53.482838 16.939772
RightArm 50.079361 -19.086802 54.290590
RightForeArm 6.741408 -0.000000 26.285714
RightHand -1.755283 -0.000000 13.581114
RightHandThumb1 -24.326973 -0.000000 -32.862282
LeftUpLeg -34.812804 -0.732963 6.106405
LeftLeg 23.987371 -0.000000 -0.000000
LeftFoot -12.222743 -6.576058 -2.638324
LeftToeBase 8.432358 -0.000000 -0.000000
RightUpLeg -116.530046 6.394527 21.492247
RightLeg 122.131668 -0.000000 -0.000000
RightFoot -13.485365 13.170628 20.606409
RightToeBase -9.656139 -0.000000 0.000000
350
root 7.091754 36.706814 3.079771 37.547560 -49.732352 -15.167511
Spine -29.904725 -9.013860 14.953981
Head 15.238087 10.791292 3.152256
LeftShoulder -10.604373 24.247270 11.296111
LeftArm 18.723289 23.153837 -78.768519
LeftForeArm 19.470284 -0.000000 28.781483
LeftHand -12.537781 -0.000000 -11.946747
LeftHandThumb1 -26.253704 0.000000 33.147579
RightShoulder -41.579087 -53.519185 16.979088
RightArm 50.118790 -19.143358 54.226102
RightForeArm 6.800971 -0.000000 26.290215
RightHand -1.775744 -0.000000 13.627113
RightHandThumb1 -24.326973 -0.000000 -32.862282
LeftUpLeg -34.905498 -0.648171 6.124102
LeftLeg 23.980536 -0.000000 -0.000000
LeftFoot -12.173322 -6.580095 -2.592356
LeftToeBase 8.282633 -0.000000 -0.000000
RightUpLeg -116.642764 6.396661 21.529562
RightLeg 122.042784 -0.000000 -0.000000
RightFoot -13.442341 13.207415 20.755375
RightToeBase -9.840628 -0.000000 0.000000
351
root 7.087844 36.709429 3.084302 37.604078 -49.776394 -15.222009
Spine -29.937100 -9.022657 14.965842
Head 15.287124 10.753828 3.156271
LeftShoulder -10.576031 24.274882 11.307939
LeftArm 18.747435 23.130683 -78.746835
LeftForeArm 19.471217 0.000000 28.858684
LeftHand -12.547393 0.000000 -11.975198
LeftHandThumb1 -26.253704 0.000000 33.147579
RightShoulder -41.566664 -53.535248 16.967620
RightArm 50.124636 -19.191201 54.228302
RightForeArm 6.880578 -0.000000 26.271671
RightHand -1.745395 -0.000000 13.625815
RightHandThumb1 -24.326973 -0.000000 -32.862282
LeftUpLeg -34.893473 -0.616869 6.131738
LeftLeg 23.972864 -0.000000 -0.000000
LeftFoot -12.167321 -6.536192 -2.548801
LeftToeBase 8.213467 -0.000000 -0.000000
RightUpLeg -116.681083 6.340076 21.567315
RightLeg 121.978226 -0.000000 -0.000000
RightFoot -13.547025 13.180761 20.710985
RightToeBase -9.412083 -0.000000 0.000000
352
root 7.084021 36.713633 3.089991 37.683454 -49.837854 -15.291586
Spine -29.988036 -9.014874 14.986192
Head 15.363629 10.731719 3.164081
LeftShoulder -10.552595 24.267520 11.316937
LeftArm 18.735909 23.153111 -78.719173
LeftForeArm 19.467033 -0.000000 28.907072
LeftHand -12.514808 -0.000000 -11.914421
LeftHandThumb1 -26.253704 0.000000 33.147579
RightShoulder -41.527674 -53.547839 16.918947
RightArm 50.122162 -19.233592 54.255973
RightForeArm 6.904092 -0.000000 26.221059
RightHand -1.707829 0.000000 13.775344
RightHandThumb1 -24.326973 -0.000000 -32.862282
LeftUpLeg -34.886379 -0.553459 6.132043
LeftLeg 23.959365 -0.000000 -0.000000
LeftFoot -12.150374 -6.513332 -2.491045
LeftToeBase 8.125778 -0.000000 -0.000000
RightUpLeg -116.709144 6.309684 21.608649
RightLeg 121.903922 -0.000000 -0.000000
RightFoot -13.545842 13.087317 20.642709
RightToeBase -9.559452 -0.000000 0.000000
353
root 7.081370 36.717980 3.096069 37.771330 -49.905456 -15.362802
Spine -30.036693 -9.019254 15.005890
Head 15.417621 10.728750 3.195074
LeftShoulder -10.575174 24.267198 11.318366
LeftArm 18.742198 23.134033 -78.716371
LeftForeArm 19.566764 -0.000000 28.940146
LeftHand -12.521058 -0.000000 -11.978759
LeftHandThumb1 -26.253704 0.000000 33.147579
RightShoulder -41.500123 -53.549181 16.896807
RightArm 50.111041 -19.299587 54.228117
RightForeArm 6.938640 0.000000 26.250767
RightHand -1.751224 -0.000000 13.662053
RightHandThumb1 -24.326973 -0.000000 -32.862282
LeftUpLeg -34.880018 -0.490046 6.128267
LeftLeg 23.932242 -0.000000 -0.000000
LeftFoot -12.123361 -6.486015 -2.449480
LeftToeBase 8.000354 -0.000000 -0.000000
RightUpLeg -116.734249 6.262464 21.635968
RightLeg 121.810776 -0.000000 -0.000000
RightFoot -13.534791 13.117665 20.695222
RightToeBase -9.481284 -0.000000 0.000000
354
root 7.078367 36.723673 3.102781 37.893494 -49.985780 -15.445234
Spine -30.130550 -8.985959 15.031487
Head 15.516228 10.706884 3.198659
LeftShoulder -10.575318 24.295139 11.310683
LeftArm 18.767084 23.157661 -78.683096
LeftForeArm 19.456355 -0.000000 28.955579
LeftHand -12.564366 -0.000000 -11.976889
LeftHandThumb1 -26.253704 0.000000 33.147579
RightShoulder -41.495461 -53.575846 16.870032
RightArm 50.106946 -19.348118 54.229871
RightForeArm 6.896086 -0.000000 26.260426
RightHand -1.744733 0.000000 13.646938
RightHandThumb1 -24.326973 -0.000000 -32.862282
LeftUpLeg -34.893237 -0.412318 6.122113
LeftLeg 23.903736 -0.000000 -0.000000
LeftFoot -12.101837 -6.451674 -2.430798
LeftToeBase 7.954213 -0.000000 -0.000000
RightUpLeg -116.769446 6.240875 21.651785
RightLeg 121.707840 -0.000000 -0.000000
RightFoot -13.551747 13.110899 20.853173
RightToeBase -9.433261 -0.000000 0.000000
355
root 7.075479 36.728567 3.108682 38.005840 -50.058474 -15.529445
Spine -30.207429 -8.978979 15.065454
Head 15.598312 10.695122 3.203452
LeftShoulder -10.588245 24.282632 11.317144
LeftArm 18.761178 23.194585 -78.663619
LeftForeArm 19.389235 -0.000000 28.943459
LeftHand -12.568932 -0.000000 -11.964616
LeftHandThumb1 -26.253704 0.000000 33.147579
RightShoulder -41.444665 -53.589080 16.801539
RightArm 50.117633 -19.411913 54.198074
RightForeArm 6.962902 -0.000000 26.249058
RightHand -1.750898 -0.000000 13.718848
RightHandThumb1 -24.326973 -0.000000 -32.862282
LeftUpLeg -34.902334 -0.328162 6.118134
LeftLeg 23.882369 -0.000000 -0.000000
LeftFoot -12.088423 -6.423407 -2.412477
LeftToeBase 7.879429 -0.000000 -0.000000
RightUpLeg -116.789979 6.223276 21.694935
RightLeg 121.609278 -0.000000 -0.000000
RightFoot -13.577488 12.992044 20.656428
RightToeBase -9.289129 -0.000000 0.000000
356
root 7.071058 36.736519 3.107709 38.219050 -50.077594 -15.679573
Spine -30.344339 -8.962697 15.158772
Head 15.693544 10.654450 3.237180
LeftShoulder -10.576862 24.286135 11.349200
LeftArm 18.764952 23.240486 -78.652686
LeftForeArm 19.402078 0.000000 28.921315
LeftHand -12.546754 -0.000000 -11.943663
LeftHandThumb1 -26.253704 0.000000 33.147579
RightShoulder -41.455827 -53.606225 16.800246
RightArm 50.152357 -19.470034 54.100251
RightForeArm 7.029714 -0.000000 26.257599
RightHand -1.761830 -0.000000 13.854850
RightHandThumb1 -24.326973 -0.000000 -32.862282
LeftUpLeg -34.992340 -0.233844 6.185452
LeftLeg 23.899575 -0.000000 -0.000000
LeftFoot -12.071121 -6.438957 -2.426031
LeftToeBase 7.831395 -0.000000 -0.000000
RightUpLeg -116.839894 6.220499 21.791768
RightLeg 121.480093 -0.000000 -0.000000
RightFoot -13.568364 12.897110 20.693996
RightToeBase -9.357634 -0.000000 0.000000
357
root 7.067413 36.740504 3.112247 38.308938 -50.126527 -15.755920
Spine -30.404496 -8.969795 15.185783
Head 15.772748 10.600501 3.249952
LeftShoulder -10.585425 24.271508 11.360200
LeftArm 18.773919 23.258167 -78.632085
LeftForeArm 19.402368 -0.000000 28.896375
LeftHand -12.551624 -0.000000 -11.959916
LeftHandThumb1 -26.253704 0.000000 33.147579
RightShoulder -41.428226 -53.608168 16.754347
RightArm 50.161731 -19.532032 54.057446
RightForeArm 7.087435 -0.000000 26.265226
RightHand -1.749991 -0.000000 13.949142
RightHandThumb1 -24.326973 -0.000000 -32.862282
LeftUpLeg -34.999622 -0.167994 6.192493
LeftLeg 23.896743 -0.000000 -0.000000
LeftFoot -12.077997 -6.420795 -2.406490
LeftToeBase 7.859752 -0.000000 -0.000000
RightUpLeg -116.852728 6.181250 21.812109
RightLeg 121.377300 -0.000000 -0.000000
RightFoot -13.636732 12.852451 20.733930
RightToeBase -9.015851 -0.000000 0.000000
358
root 7.064997 36.744084 3.117861 38.388321 -50.188974 -15.827512
Spine -30.451916 -8.974527 15.205326
Head 15.839226 10.568976 3.259697
LeftShoulder -10.589565 24.246808 11.375659
LeftArm 18.770986 23.275788 -78.625375
LeftForeArm 19.374057 -0.000000 28.856337
LeftHand -12.569123 -0.000000 -11.917185
LeftHandThumb1 -26.253704 0.000000 33.147579
RightShoulder -41.402025 -53.596947 16.724593
RightArm 50.166262 -19.571893 53.989678
RightForeArm 7.080732 -0.000000 26.297211
RightHand -1.812985 -0.000000 14.071904
RightHandThumb1 -24.326973 -0.000000 -32.862282
LeftUpLeg -34.999969 -0.117492 6.195304
LeftLeg 23.896263 -0.000000 -0.000000
LeftFoot -12.089260 -6.396949 -2.447217
LeftToeBase 7.934916 -0.000000 -0.000000
RightUpLeg -116.849224 6.138005 21.846608
RightLeg 121.275560 -0.000000 -0.000000
RightFoot -13.639960 12.765648 20.599821
RightToeBase -9.263455 -0.000000 0.000000
